<?xml version="1.0" standalone="no"?>
<!DOCTYPE svg PUBLIC "-//W3C//DTD SVG 20010904//EN"
 "http://www.w3.org/TR/2001/REC-SVG-20010904/DTD/svg10.dtd">
<svg version="1.0" xmlns="http://www.w3.org/2000/svg"
 width="279.000000pt" height="343.000000pt" viewBox="0 0 279.000000 343.000000"
 preserveAspectRatio="xMidYMid meet">
<g transform="translate(0.000000,343.000000) scale(0.100000,-0.100000)"
fill="#000000" stroke="none">
<path d="M42 2183 l3 -1198 128 -3 127 -3 0 702 0 703 35 -49 c47 -66 102
-101 193 -121 65 -15 111 -16 309 -11 256 7 330 0 410 -39 93 -45 137 -122
149 -264 l6 -65 -85 -175 c-298 -613 -458 -1067 -474 -1341 -9 -159 15 -216
120 -278 30 -18 45 -21 80 -16 109 18 156 77 247 305 144 365 335 540 671 615
42 9 92 15 110 13 l34 -3 177 -425 c97 -234 184 -440 192 -457 l16 -33 135 0
c101 0 135 3 135 13 0 27 -1006 2387 -1017 2387 -7 0 -27 -26 -45 -57 l-33
-58 -3 528 -2 527 -130 0 -130 0 0 -667 c-1 -614 -2 -666 -17 -638 -46 88
-137 141 -262 153 -43 4 -165 4 -272 -1 -280 -12 -382 7 -457 84 -85 87 -92
131 -92 647 l0 422 -130 0 -130 0 2 -1197z m1838 -705 c176 -409 206 -484 192
-489 -10 -4 -60 -14 -113 -24 -176 -31 -325 -104 -444 -220 -105 -102 -195
-252 -269 -448 -59 -157 -105 -217 -182 -239 -50 -13 -136 21 -163 66 -27 43
-44 149 -36 221 30 275 230 822 478 1310 l56 110 0 -392 1 -393 130 0 130 0 0
497 c0 273 3 494 6 491 3 -4 99 -224 214 -490z"/>
</g>
</svg>
